<!DOCTYPE svg PUBLIC "-//W3C//DTD SVG 1.1//EN" "http://www.w3.org/Graphics/SVG/1.1/DTD/svg11.dtd">
<!-- Uploaded to: SVG Repo, www.svgrepo.com, Transformed by: SVG Repo Mixer Tools -->
<svg height="800px" width="800px" version="1.1" id="Layer_1" xmlns="http://www.w3.org/2000/svg" xmlns:xlink="http://www.w3.org/1999/xlink" viewBox="0 0 496 496" xml:space="preserve" fill="#858585" stroke="#858585" transform="rotate(0)">
<g id="SVGRepo_bgCarrier" stroke-width="0"/>
<g id="SVGRepo_tracerCarrier" stroke-linecap="round" stroke-linejoin="round" stroke="#CCCCCC" stroke-width="0.992"/>
<g id="SVGRepo_iconCarrier"> <circle style="fill:#4c4848;" cx="248" cy="24" r="24"/> <circle style="fill:#c6c7c7;" cx="248" cy="472" r="24"/> <circle style="fill:#000000;" cx="136" cy="53.6" r="24"/> <path style="fill:#c6c7c7;" d="M380.8,430.4c6.4,11.2,2.4,25.6-8.8,32.8c-11.2,6.4-25.6,2.4-32.8-8.8c-6.4-11.2-2.4-25.6,8.8-32.8 C359.2,415.2,374.4,419.2,380.8,430.4z"/> <path style="fill:#000000;" d="M65.6,115.2c11.2,6.4,15.2,20.8,8.8,32.8c-6.4,11.2-20.8,15.2-32.8,8.8c-11.2-6.4-15.2-20.8-8.8-32.8 S54.4,108.8,65.6,115.2z"/> <path style="fill:#abb0b0;" d="M454.4,339.2c11.2,6.4,15.2,20.8,8.8,32.8c-6.4,11.2-20.8,15.2-32.8,8.8 c-11.2-6.4-15.2-20.8-8.8-32.8C428,336.8,442.4,332.8,454.4,339.2z"/> <circle style="fill:#212121;" cx="24" cy="248" r="24"/> <circle style="fill:#c0b9b9;" cx="472" cy="248" r="24"/> <path style="fill:#c6c7c7;" d="M41.6,339.2c11.2-6.4,25.6-2.4,32.8,8.8c6.4,11.2,2.4,25.6-8.8,32.8c-11.2,6.4-25.6,2.4-32.8-8.8 S30.4,346.4,41.6,339.2z"/> <path d="M430.4,115.2c11.2-6.4,25.6-2.4,32.8,8.8c6.4,11.2,2.4,25.6-8.8,32.8c-11.2,6.4-25.6,2.4-32.8-8.8 C415.2,136.8,419.2,121.6,430.4,115.2z"/> <path style="fill:#D9DDDD;" d="M115.2,430.4c6.4-11.2,20.8-15.2,32.8-8.8c11.2,6.4,15.2,20.8,8.8,32.8c-6.4,11.2-20.8,15.2-32.8,8.8 C112.8,456,108.8,441.6,115.2,430.4z"/> <path style="fill:#878282;" d="M339.2,41.6c6.4-11.2,20.8-15.2,32.8-8.8c11.2,6.4,15.2,20.8,8.8,32.8c-6.4,11.2-20.8,15.2-32.8,8.8 C336.8,68,332.8,53.6,339.2,41.6z"/> </g>
</svg>